<?xml version="1.0" encoding="utf-8"?>
<!-- Generator: Adobe Illustrator 22.0.1, SVG Export Plug-In . SVG Version: 6.00 Build 0)  -->
<svg version="1.1" id="More_roundedStraight_Edges_x2F_Angles_Adjusted_copy_2"
	 xmlns="http://www.w3.org/2000/svg" xmlns:xlink="http://www.w3.org/1999/xlink" x="0px" y="0px" viewBox="0 0 75 75"
	 style="enable-background:new 0 0 75 75;" xml:space="preserve">
<style type="text/css">
	.st0{fill:#FFFFFF;}
	.st1{clip-path:url(#SVGID_2_);fill:#E21E2D;}
</style>
<g>
	<g>
		<path class="st0" d="M8.9,74.5c-1.6,0-2.9-1.2-3-2.8l-5.4-68C0.4,2.9,0.7,2.1,1.3,1.4c0.6-0.6,1.4-1,2.2-1h68c0.9,0,1.7,0.4,2.2,1
			c0.6,0.6,0.9,1.5,0.8,2.3l-5.4,68c-0.1,1.6-1.5,2.8-3,2.8H8.9z"/>
		<path d="M71.5,0.9c1.5,0,2.7,1.3,2.6,2.8l-5.4,68c-0.1,1.3-1.2,2.4-2.6,2.4H8.9c-1.4,0-2.5-1-2.6-2.4l-5.4-68
			C0.8,2.2,2,0.9,3.5,0.9H71.5 M71.5,0h-68c-1,0-1.9,0.4-2.6,1.1C0.3,1.8-0.1,2.8,0,3.8l5.4,68C5.5,73.6,7.1,75,8.9,75h57.2
			c1.8,0,3.4-1.4,3.5-3.2l5.4-68c0.1-1-0.3-1.9-0.9-2.7C73.4,0.4,72.5,0,71.5,0L71.5,0z"/>
	</g>
	<path d="M53,29.6c-0.4,2.1-0.8,3.1-1.1,4.4c-0.3,1.3-0.9,3.3-1.4,3.3c-0.6,0.2-0.8-0.5-1.1,0c-0.2,0.3-0.4,0.7-0.6,0.9
		c-0.1,0.2-0.2,0.5-0.2,0.7c0,0.4,0,1.6-0.4,3.2c-0.5,2.4-1.4,4.1-2.4,5.2c-1.8,2.1-3.5,2.4-3.7,2.6c-0.3,0.1-0.7,0.1-0.8,0
		c-0.1-0.1-0.2-0.2-0.5-0.4c-0.2-0.2-0.3,0.1-0.3,0.2c0,0.1,0.1,1.1-0.1,1.5c-0.5,1-1.1,1.1-1.4,2.3c-0.1,0.4,0,1-0.5,0.7
		c-1.2-0.7-2.9-2.5-3.3-4.3c-0.1-0.5,0-1.2,0.3-2.2c0.2-0.6,0.3-1.3,0.3-1.7c0-0.7-0.3-1.3,0-1.3c0.5-0.1,0.7,1.2,1,1.1
		c0.4-0.2,0.1-1.6,0.1-1.6s-0.2-0.4-0.9-0.6c-0.4-0.1-0.5-0.4-0.1-0.6c0.3-0.2,0.7-0.4,1.1-0.3c2.9,0.4,3.8-0.2,5-0.5
		c0.2-0.1,0.4-0.1,0.6,0c0.2,0.1,0.7,0.4,0.8,0.6c0.1,0.2,0,1.2,0.2,2c0.2,0.7,0.7,0.1,0.8-0.2c0.1-0.3,0.3-1,0.3-1.2
		c0-0.2,0.2-0.9,0.5-1.2c0.5-0.4,0.7-1,0.8-1.3c0.1-0.2,0.2-0.9,0.2-2c0-1-0.2-1.1-0.5-1.4c-0.2-0.2-0.5-0.2-1.2-0.8
		c-0.6-0.5-1-1.3-1.4-1.9c-0.4-0.5-1.1-1.1-1.9-1.3c-0.8-0.2-0.4,0.5-0.4,0.7c0,0.1,0.2,0.8,0,1c-0.3,0.2-1.8,1.3-3.2,0.9
		c-1.7-0.4-2.2-1.4-2.3-2.2c0-0.6,0.3-1.2,0.7-2c0.2-0.4,0.3-1.1,0.4-1.8c0.1-0.5,0.2-1.3,0.3-1.6c0.1-0.2,0.3-0.4,0.7-0.4
		c0.4,0,0.7,0.2,0.8,0.6c0.3,1.3,0.8,1.7,0.9,1.8c0.2,0.1,0.5-0.1,0.6-0.2c0.1-0.1,0.4-0.4,0.3-0.5c-0.1-0.3-0.2-0.4-0.3-0.6
		c-0.1-0.3,0.3-0.2,0.3-0.2c0.5,0.4,1,0.4,1.9,0.6c1.6,0.3,1.8-0.3,2.9-0.1c0.1,0,0.4,0.1,0.5,0.3c0.1,0.1,0.2,0.5,0.3,0.5
		c0.1,0.1,0.4,0.1,0.6,0.1c0.2,0,0.6,0,0.6,0.4c-0.2,1.1-1.5,1.4-2.1,1.5c-0.3,0-0.4,0.1-0.4,0.1c-0.1,0.1-0.1,0.5,0,0.7
		c0.1,0.2,0.6,0.2,1.3,0c0.7-0.1,1.4-0.5,1.9-1.3c0.6-0.9,0.9-2.8,0.9-3.2c0.1-0.4,0.2-1,0.4-1.1c0.2-0.1,1.1-0.4,1.2-0.4
		c0.2,0,0.3,0.1,0.3,0.5c0.1,0.4-0.1,2.5-0.1,2.8c0,0.3,0.2,0.3,0.3,0.3c0.2-0.1,0.8-0.5,0.9-0.9c0.1-0.3-0.2-0.8,0-1.3
		c0.2-0.7,0.4-0.9,0.6-0.9C53,28.1,53.2,28.5,53,29.6 M40.3,41.1c-0.3,0.1-1.3,0.3-1.8,0.4c-0.5,0-2,0.1-2.2,0.1
		c-0.3,0-0.7-0.2-1.1-0.5c-0.1-0.1-0.1-0.3,0.1-0.3c0.5,0,1.4-0.3,4.3,0c0.3,0,0.5,0,0.5,0C40.4,40.9,40.6,41,40.3,41.1 M33,39.9
		c-1.4,0-2.1-0.6-2.2-0.7c-0.1-0.2,0.1-0.3,0.2-0.3c0.3-0.1,0.9-0.4,1.2-0.6c0.2-0.2,0.9-0.6,1.3-0.8c0.2-0.1,1.1-0.5,1.6-0.1
		c0.8,0.6,1.6,0.9,3,0.9c0.9-0.1,0.9-0.8,1.6-1c0.7-0.2,0.8-0.4,1-0.5c0.3-0.1,0.5-0.1,0.8,0.1c0.4,0.3,0.5,0.6,0.9,1.1
		c0.6,0.7,1.2,1,1.4,1c0.2,0,0.3,0.2,0.3,0.3c0,0.1-0.1,0.3-0.7,0.4c-1.9,0.6-4.1,0.2-5.1-0.2c-0.6-0.2-1.1-0.3-1.7,0
		C36,39.7,34.4,39.9,33,39.9 M32.3,47.9c-1.1,0-4-1.7-5.3-6.7c-0.3-1.3,0.5-2.3,1-2.5c0.3-0.1,0.4-0.1,0.5-0.2c0.1,0,0.6,0,0.6,0.6
		c0,0.5,0.4,4.3,1.4,5.7c0.2,0.3,0.5,0.4,0.6,0.1c0.1-0.3,0.3-0.6,0.3-0.8c0-0.1,0.4-0.7,0.5-0.2c0.2,0.9,0.8,2.7,1,3.2
		C33.3,47.9,32.7,47.9,32.3,47.9 M26.5,33.1c-0.1-0.3,0.1-0.8,0.9-0.3c0.1,0.1,0.5,0.2,0.9,0.4c0.2,0.1,0.4,0,0.5-0.2
		c0.1-0.2,0.3-0.5-0.1-0.7c-0.3-0.2-1.2-0.3-1.7-1.5c-0.1-0.2,0.1-0.5,0.2-0.5c0.1-0.1,0.3,0,0.5,0.1c0.2,0.1,0.5,0.5,0.8,0.5
		c0.3,0,0.3-0.1,0.4-0.2c0.2-0.3,0.9-1.3,2.3-1.1c0.6,0.1,1.1,0.2,1.3,0.2c0.1,0,0.5,0,0.9,0c0.4-0.1,1.1-0.2,0.7,0.1
		c-0.3,0.3-0.5,0.4-0.2,0.7c0,0,0,0,0,0c0.2,0.3,0.2,0.7,0,0.9l0,0c-0.3,0.4-1,0.9-2.3,1c-0.6,0-0.6,0-0.7,0.4c0,0.1,0,0.2,0,0.3
		c0,0.2,0.1,0.2,0.6,0.3c0.3,0,0.9,0,0.9,0c0.1,0,0.3,0,0.2,0.2c0,0-0.1,0.1-0.1,0.1c-0.3,0.4-0.4,0.7-0.4,1c0,0.2-0.1,0.3-0.3,0.4
		c0,0,0,0,0,0c-0.2,0.1-1,0.3-1.6,0.8c-0.6,0.5-1.9,0.9-2.5,0.3C27.2,35.6,26.7,34.2,26.5,33.1 M26.1,26.9c-0.2,0-0.3-0.1-0.5-0.1
		c-0.2,0-0.4,0-0.4-0.1c-0.1-0.1-0.1-0.2,0.1-0.3c0.1,0,0.2,0,0.3,0c0.3,0,0.6-0.3,0.8,0C26.5,26.6,26.4,26.9,26.1,26.9 M24,34.8
		c-0.6-0.4-0.5-0.9-0.7-1.3c-0.3-1-0.6-2.2-0.9-3.3c-0.2-0.6-0.2-2.1,0.6-2.1c0.4,0,0.7,0.1,0.9,0.5c0.3,0.9-0.3,0.7-0.1,1.8
		c0.1,0.8,0.2,1.5,0.5,2.8c0.1,0.6,0.3,2-0.2,1.7 M22.3,20.4c0.3-0.8,0.9-1.6,1.3-2.1c0.4-0.5,0.2-1.1,0-1.6c-0.1-0.5-0.4-1-0.5-1.2
		c0-0.1,0-0.2,0-0.2c0,0,0,0,0.1,0l0.7-0.1c2-0.2,3.7-0.9,4.2-1.2c0.3-0.1,0.5-0.3,0.8-0.4c0.3-0.1,0.7-0.2,1-0.3
		c0.3,0,0.6-0.1,0.8-0.1c0.4,0,1,0.2,0.9,0.3c-0.3,0.2-1.8,0.5-3.2,2.1c-0.8,1-1,1.6-1.3,2c-0.3,0.5-0.5,0.6-0.9,0.9
		c-0.2,0.2-0.6,0.5-0.8,1.1c-0.2,0.6-0.9,2.5-1,5.5c0,0.4-0.1,0.7-0.4,0.9c0,0,0,0,0,0c-0.3,0.1-0.5,0.3-0.5,0.1
		c-0.2-0.7-0.6-2.1-0.8-3c-0.1-0.3-0.1-0.6-0.2-0.9C22.3,21.4,22.2,20.8,22.3,20.4 M28.3,27.8c-0.4,0.2-0.7,0.5-1,0.7
		c-0.3,0.2-0.8,0-0.6-0.4c0.1-0.2,0.4-0.8,0.9-0.9c0.1,0,0.3-0.1,0.5-0.1c0.3,0,0.5-0.1,0.7-0.1c0.4,0,0.4,0.3,0.2,0.4
		C28.8,27.5,28.5,27.6,28.3,27.8 M28.8,28.5c0.1-0.1,0.1-0.1,0.5-0.3c0.2-0.1,0.5-0.3,0.8-0.5c0.5-0.3,1.4-0.6,1.8-0.6
		c0.3,0,0.8,0.1,1,0.4c0.3,0.3,0.3,0.6,0,0.6c-0.3-0.1-0.7-0.2-1.4,0c-0.7,0.2-1.3,0.5-1.6,0.6c-0.4,0.2-0.7,0.2-0.9,0.2
		C28.7,28.9,28.4,28.7,28.8,28.5 M34.3,35.1c0.1,0.2,0.1,0.4,0.1,0.5c0,0.1-0.5,0.3-0.9-0.3c-0.4-0.6-0.2-1.3,0-1.6
		c0.4-0.5,0.9-0.1,0.9,0C34.1,34.4,34.2,34.9,34.3,35.1 M46.2,29.3c-0.1,0.1-0.7-0.1-0.9-0.2c-0.3-0.2-0.5-0.3-0.9-0.6
		c-0.3-0.2-0.8-0.3-1.2-0.3c-0.4,0-0.7,0.1-1,0.2c-0.3,0.1-0.3-0.2-0.2-0.3c0.1-0.1,0.5-0.4,1.3-0.7c0.1,0,0.4,0,0.5,0
		c0.3,0,0.8,0.3,1.1,0.6c0.3,0.3,0.9,0.8,1.2,1C46.2,29,46.6,29.1,46.2,29.3 M45.9,27.9c0,0-0.5-0.4-0.7-0.6
		c-0.1-0.1-0.1-0.3,0.2-0.3c0.8,0,1.5,0,1.8,0.3c0.3,0.2,0.3,0.7,0.1,0.9c-0.1,0.3-0.4,0.2-0.6,0.2C46.6,28.4,45.9,27.9,45.9,27.9
		 M49.7,26.7c-0.1,0.1-0.2,0.1-0.5,0.1c-0.2,0-0.3,0.2-0.5,0.1c-0.3,0-0.4-0.4-0.3-0.6c0.2-0.3,0.5,0,0.8,0c0.1,0,0.2,0,0.3,0
		C49.8,26.5,49.8,26.6,49.7,26.7 M27.4,11.7c0.1-0.2,0.4-0.5,0.7-0.7c0.3-0.2,1.8-1.3,3.2-1.7c0.3-0.1,0.3-0.1,0.5-0.2
		c0.2-0.1,0.4-0.5,0-0.6c-0.5-0.1-0.6,0-0.9,0c-0.2,0-0.4-0.1-0.2-0.3c0.2-0.2,0.5-0.4,1.1-0.6c1.2-0.5,3.4-0.7,4.4-0.8
		c1.3-0.1,1.5-0.1,2.3,0c0.8,0.1,1.4,0.2,1.7,0.3c1.5,0.3,3.3,1,4.8,1.8c0.8,0.5,1.6,1,2.3,1.6c2.2,1.7,4.8,5,4.4,12
		c0,0.8-0.1,1.3-0.2,1.5c-0.1,0.2-0.3,0.5-0.5,0.1c-0.5-1.5-1.1-4.1-2.4-6.2c-0.2-0.3-0.5-0.3-0.4,0c0,0.1,0.1,1.5,0,1.7
		c-0.2,1.7,0.3,1,1.1,2.9c0.2,0.6,0.5,1.7,0.6,2.4c0,0.2,0,0.4,0,0.6c0,0.3-0.1,0.3-0.1,0.3c-0.5,0-1.4-0.3-1.9-0.3
		c-0.6,0-4.5-0.1-5.9,0.1c-1.5,0.1-2.3,0.6-3.1,1.3c-0.1,0.1-0.3,0.2-0.4,0.3c-0.1,0-0.1,0-0.2,0c-0.1,0-0.2,0-0.4-0.1
		c-0.4-0.1-0.8-0.1-1.1,0c-0.4,0.1-0.5,0.2-0.9,0c-0.5-0.3-1.4-1.6-4.3-1.6c-1.6,0-3.8,0-5,0c-0.4,0-0.6,0.1-0.7,0.1
		c0,0,0-0.1,0-0.1c0-2.3,1.5-1.8,1.7-2.4c0.4-1.5,0.5-5.1,3.1-7.3c1.2-1.1,1.9-1.1,3.1-1.1c1.2,0,2.5,0.3,3.1,0.6
		c0.5,0.2,0.7,0.4,0.9,0.3c0.2-0.1,0.7-0.6,0.9-0.8c0.2-0.2,0.1-0.4-0.1-0.6c-0.2-0.2-2-2.5-4.9-3C33,11.1,32.6,11,32,11
		c-0.3,0-0.6,0-1.3,0.1c-1.1,0.1-2.5,0.7-3.4,1.1C27.2,12.1,27.4,11.8,27.4,11.7 M26.5,44.1c0,1.2,0.7,4.3,4.7,7.3
		c1.7,1.2,2.4,1.8,2.6,2l0,0c0.1,0.1-0.6,0.1-0.8,0.1c-0.3,0-1.4-0.1-2.2,0.1c-0.8,0.1-0.7,0.3-0.7,0.9c-0.1,0.4,0,1.1,0,1.7
		c0,0.6-0.1,1,0.2,1.3c0.2,0.3,0.4,0.3,1.5,0.3c1-0.1,3.8-0.1,4.1-0.1c0.4-0.1,0.4,0.1,0.1,0.6c-0.4,0.9-1.8,5.1-4,9.1
		c-0.3,0.6,0.5,0.3,1.3,0.6c1.3,0.6,1.3,0.8,1.6,0.1c0.4-0.7,2.3-5.2,2.6-6.5c0-0.2,0.1-0.3,0.1-0.1c0,0.2,0,5.8-0.1,7.6
		c0,0.1,0,0.2,0.1,0.3c0.1,0.1,0.2,0.1,0.4,0.2c0,0,0,0,0,0c0.7-0.2,1.4-0.4,2.1-0.3c0.1,0,0.1,0,0.2,0c0,0,0.1-0.1,0.1-0.1
		c0.1-0.1,0.1-0.2,0.1-0.3c0,0,0,0,0,0c0-0.1,0.1-0.3,0.1-0.5c0-0.1,0-0.2,0-0.3c0-0.1,0-0.2,0-0.4c0-0.1,0-0.3,0-0.4
		c0-0.2,0-0.3,0-0.5c0-0.2,0-0.4,0-0.5c0-0.2,0-0.1,0-0.3c0-0.2,0-0.4,0-0.6c0-0.2,0-0.4,0-0.7c0-0.2,0-0.5,0-0.7
		c0-0.2,0-0.5-0.1-0.7c0-0.2,0-0.5-0.1-0.7c0-0.2-0.1-0.5-0.1-0.7c0-0.2-0.1-0.5-0.1-0.7c0-0.2-0.1-0.5-0.1-0.7
		c0-0.2-0.1-0.3-0.1-0.6c0-0.2-0.1-0.4-0.1-0.7c-0.1-0.2-0.1-0.4-0.2-0.6c0-0.2-0.1-0.3-0.2-0.5c0,0-0.1-0.3,0-0.3
		c0-0.1,0.1,0,0.2,0c0,0,0.1,0,0.1,0c0.7-0.1,2,0,2.2,0c0.3,0,1.7,0.1,2.1,0.2c0.4,0,0.9,0.1,0.9-1.1c0-0.3,0-0.5,0-0.8
		c0,0,0-0.1,0-0.1c0-0.1,0-0.2,0-0.2c0,0,0-0.1,0-0.1c0,0,0-0.1,0-0.1c0,0,0-0.1,0-0.1c0-0.1,0-0.1,0-0.2c0,0,0,0,0-0.1
		c0,0,0-0.1,0-0.1c0,0,0,0,0-0.1c0,0,0-0.1,0-0.1c0,0,0,0,0,0c0,0,0-0.1,0-0.1c0-0.3,0-0.8-0.6-1c-0.6-0.2-1.8-0.2-2.8-0.1
		c-0.1,0-0.2,0-0.1,0l0,0c0.2-0.2,1.7-1,3.3-2.5c1.8-1.6,2.7-2.5,3.3-3.7c0,0,2-3.9,1.9-7.2c0-0.7,0.1-0.6,0.5-0.6
		c0.1,0,0.6,0,0.9-0.2c0.9-0.2,1.6-3.1,1.6-3.1s1.3-4.4,1.6-6.2c0.3-1.6,0.2-2.5-0.8-3l-0.2-0.1c-0.1,0-0.1-0.1-0.1-0.2
		c0-0.1,0-0.1,0-0.2c0.5-1.7,1.3-3.8,1.1-4.6c0-0.2-0.2-0.3-0.3-0.4c-0.1-0.1-0.5-0.5-0.6-0.8c0,0,0-0.1,0-0.1
		c-0.3-3.1-1.4-7.1-4.7-10.5c0,0-0.2-0.2-0.4-0.3c-0.3-0.3-0.6-0.6-1.1-0.9c-0.9-0.7-1.6-1.2-3.1-1.9c-0.1-0.1-1.2-0.6-2.8-0.9
		c-0.2,0-0.3-0.1-0.5-0.1c-0.2-0.1-0.6-0.1-1-0.2c-1-0.2-2.1-0.2-3.3-0.2v0c-0.1,0-0.3,0-0.3,0c-0.1,0-0.1,0-0.2,0
		c-0.1,0-0.2,0-0.2,0c-0.2,0-0.6,0-0.9,0.1c-0.5,0.1-1.1,0.2-1.5,0.3c-0.4,0.1-0.9,0.2-1.6,0.4c-0.3,0.1-0.6,0.2-0.8,0.3
		c-0.1,0-0.2,0-0.2,0.1c-0.3,0.1-0.6,0.2-0.9,0.3c-0.2,0.1-1.2,0.5-1.4,0.6c-0.1,0-0.2,0.1-0.4,0.2c-0.7,0.2-0.8,0.6-0.8,0.8
		c0,0.1,0,0.3-0.1,0.4c-1,2-3.2,2.2-4.1,2.3c-0.2,0-0.4,0-0.4,0.3c0.2,0.6,1.2,1.7,1.9,1.9c0,0.1-0.6,0.2-0.7,0.2
		c-0.3,0.1-1.3,0-1.4,0c0,0,0,0,0,0c-1.2,0.1-1.6,0.9-1.7,1.3c0,0.1,0,0.3,0.1,0.4c0.3,0.4,0.5,0.7,0.8,1.3c0,0,0,0,0,0
		c0.1,0.1,0.1,0.3,0.1,0.5c0,0.2,0.2,0.5,0,0.9c-0.4,0.8-1.4,1.1-1.6,1.8c-0.2,1.1,0.2,1.9,0.6,3.7c0.3,1.3,0.6,2.6,0.8,3.2
		c0,0,0,0.1,0,0.1c-0.1,0-0.2,0.1-0.3,0.1c-0.6,0.2-0.8,0.7-0.9,1.6c-0.1,2,1.4,5.2,1.8,7.9c0.2,0.9,0.6,2.4,1.3,3
		c0.2,0.1,0.5,0.2,0.7,0.3c0.5,0.1,0.8-0.2,0.8,0.3c0,0.1,0,0.4,0.1,0.6C25.4,42.2,26.5,44.1,26.5,44.1"/>
	<g>
		<defs>
			<path id="SVGID_1_" d="M70.8,2.8H4.2c-0.7,0-1.3,0.6-1.3,1.4l5.3,67.3c0,0.4,0.4,0.7,0.7,0.7h57c0.4,0,0.7-0.3,0.7-0.7l5.3-67.3
				C72.2,3.5,71.6,2.8,70.8,2.8z"/>
		</defs>
		<clipPath id="SVGID_2_">
			<use xlink:href="#SVGID_1_"  style="overflow:visible;"/>
		</clipPath>
		<rect x="59" y="1.2" class="st1" width="15" height="55.4"/>
		<rect x="0.9" y="1.2" class="st1" width="15" height="55.4"/>
	</g>
</g>
</svg>
